<svg width="60" height="16" viewBox="0 0 60 16" fill="none" xmlns="http://www.w3.org/2000/svg">
<path d="M2.57836 8.216C2.57836 7.4 3.16636 6.86 3.87436 6.86C4.58236 6.86 5.17036 7.388 5.17036 8.216C5.17036 9.032 4.59436 9.548 3.87436 9.548C3.20236 9.548 2.57836 9.056 2.57836 8.216ZM0.886359 5.396V13.748H2.54236V10.316C2.81836 10.832 3.47836 11.12 4.18636 11.12C5.62636 11.12 6.89836 9.98 6.89836 8.18C6.89836 6.404 5.62636 5.276 4.18636 5.276C3.47836 5.276 2.81836 5.576 2.54236 6.092V5.396H0.886359ZM11.5671 8.36C11.5671 9.212 11.0751 9.5 10.5591 9.5C10.1751 9.5 9.56311 9.284 9.56311 8.384V5.396H7.89511V8.744C7.89511 10.34 8.85511 11.12 10.1151 11.12C10.6551 11.12 11.2671 10.796 11.5671 10.232V11H13.2351V5.396H11.5671V8.36ZM16.3174 8.216C16.3174 7.4 16.9054 6.86 17.6134 6.86C18.3214 6.86 18.9094 7.388 18.9094 8.216C18.9094 9.032 18.3334 9.548 17.6134 9.548C16.9414 9.548 16.3174 9.056 16.3174 8.216ZM14.6254 5.396V13.748H16.2814V10.316C16.5574 10.832 17.2174 11.12 17.9254 11.12C19.3654 11.12 20.6374 9.98 20.6374 8.18C20.6374 6.404 19.3654 5.276 17.9254 5.276C17.2174 5.276 16.5574 5.576 16.2814 6.092V5.396H14.6254ZM23.8782 8.888C24.2982 8.996 24.4302 9.128 24.4302 9.368C24.4302 9.656 24.1182 9.824 23.7462 9.836C23.2782 9.836 22.9302 9.512 22.9182 9.188H21.3582C21.3582 10.436 22.5702 11.12 23.6982 11.12C24.8742 11.12 26.1222 10.556 26.1222 9.368C26.1222 8.996 25.9542 8.12 24.5982 7.736L23.6502 7.484C23.3142 7.4 23.1702 7.244 23.1582 7.064C23.1462 6.812 23.3742 6.644 23.7462 6.644C24.0222 6.644 24.3702 6.716 24.3822 7.136H25.9542C25.9542 5.756 24.7542 5.276 23.6502 5.276C22.4742 5.276 21.4662 6.044 21.4662 6.872C21.4662 7.388 21.4542 8.252 23.1462 8.696L23.8782 8.888ZM28.8377 8.216C28.8377 7.4 29.4257 6.86 30.1337 6.86C30.8417 6.86 31.4297 7.388 31.4297 8.216C31.4297 9.032 30.8537 9.548 30.1337 9.548C29.4617 9.548 28.8377 9.056 28.8377 8.216ZM27.1457 5.396V13.748H28.8017V10.316C29.0777 10.832 29.7377 11.12 30.4457 11.12C31.8857 11.12 33.1577 9.98 33.1577 8.18C33.1577 6.404 31.8857 5.276 30.4457 5.276C29.7377 5.276 29.0777 5.576 28.8017 6.092V5.396H27.1457ZM36.7825 9.464C36.0985 9.464 35.5225 8.96 35.5225 8.18C35.5225 7.412 36.0985 6.908 36.7825 6.908C37.4905 6.908 38.0545 7.412 38.0545 8.18C38.0545 8.96 37.4905 9.464 36.7825 9.464ZM36.7825 11.096C38.3665 11.096 39.6985 9.944 39.6985 8.18C39.6985 6.404 38.3665 5.276 36.7825 5.276C35.1865 5.276 33.8785 6.404 33.8785 8.18C33.8785 9.944 35.1865 11.096 36.7825 11.096ZM42.9282 5.396V3.248H41.2722V5.396H40.2522V6.716H41.2722V11H42.9282V6.716H44.1042V5.396H42.9282ZM47.161 5.396V3.248H45.505V5.396H44.485V6.716H45.505V11H47.161V6.716H48.337V5.396H47.161ZM53.0638 9.152C52.7878 9.524 52.3078 9.68 51.8398 9.68C51.2398 9.68 50.5558 9.392 50.4598 8.744H54.5638C54.5758 8.6 54.5878 8.372 54.5878 8.228C54.5878 6.464 53.3158 5.276 51.7198 5.276C50.1238 5.276 48.7918 6.404 48.7918 8.18C48.7918 9.944 50.1238 11.12 51.7198 11.12C52.6798 11.12 53.6998 10.82 54.2758 9.98L53.0638 9.152ZM50.4838 7.7C50.6158 6.98 51.2758 6.74 51.7318 6.74C52.2118 6.74 52.8118 7.016 52.9078 7.7H50.4838ZM57.2434 9.044C57.2434 7.556 57.6754 6.812 58.6354 6.812C58.9114 6.812 59.1874 6.836 59.4874 6.98L59.7874 5.48C59.5114 5.348 59.2234 5.276 58.8274 5.276C58.2514 5.276 57.5314 5.708 57.2434 6.752V5.396H55.5754V11H57.2434V9.044Z" fill="white"/>
</svg>
