<svg width="17" height="17" viewBox="0 0 17 17" fill="none" xmlns="http://www.w3.org/2000/svg">
<g clip-path="url(#clip0_3280_254)">
<path d="M7.79166 1.41669C11.3107 1.41669 14.1667 4.27269 14.1667 7.79169C14.1667 11.3107 11.3107 14.1667 7.79166 14.1667C4.27266 14.1667 1.41666 11.3107 1.41666 7.79169C1.41666 4.27269 4.27266 1.41669 7.79166 1.41669ZM7.79166 12.75C10.5308 12.75 12.75 10.5308 12.75 7.79169C12.75 5.05185 10.5308 2.83335 7.79166 2.83335C5.05182 2.83335 2.83332 5.05185 2.83332 7.79169C2.83332 10.5308 5.05182 12.75 7.79166 12.75ZM13.8019 12.8003L15.8057 14.8035L14.8034 15.8058L12.8003 13.8019L13.8019 12.8003Z" fill="#787878"/>
</g>
<defs>
<clipPath id="clip0_3280_254">
<rect width="17" height="17" fill="white"/>
</clipPath>
</defs>
</svg>
