<svg width="525" height="286" viewBox="0 0 525 286" fill="none" xmlns="http://www.w3.org/2000/svg">
<rect width="525" height="286" rx="6" fill="#F9F9F9"/>
<path d="M25.84 213.44V214H31.482V212.74H27.996C29.27 211.242 29.284 211.186 30.474 209.814C31.076 209.142 31.468 208.344 31.468 207.448C31.468 205.838 30.194 204.746 28.598 204.746C27.184 204.746 25.952 205.67 25.728 207.154L26.946 207.448C27.072 206.538 27.758 206.006 28.598 206.006C29.494 206.006 30.222 206.552 30.222 207.448C30.222 207.966 29.956 208.456 29.55 208.946L25.84 213.44ZM33.0068 209.45C33.0068 212.026 33.6928 214.126 36.3248 214.126C38.9568 214.126 39.6288 212.026 39.6288 209.45C39.6288 206.846 38.9568 204.746 36.3248 204.746C33.6928 204.746 33.0068 206.846 33.0068 209.45ZM34.2668 209.45C34.2668 207.546 34.6868 206.006 36.3248 206.006C37.9628 206.006 38.3828 207.546 38.3828 209.45C38.3828 211.34 37.9628 212.88 36.3248 212.88C34.6868 212.88 34.2668 211.34 34.2668 209.45Z" fill="#787878"/>
<path d="M30.37 170.124H31.686V168.934H30.37V162.858H29.432L24.364 170.124H29.124V172H30.37V170.124ZM26.506 168.934L29.124 165.126V168.934H26.506ZM32.9092 167.45C32.9092 170.026 33.5952 172.126 36.2272 172.126C38.8592 172.126 39.5312 170.026 39.5312 167.45C39.5312 164.846 38.8592 162.746 36.2272 162.746C33.5952 162.746 32.9092 164.846 32.9092 167.45ZM34.1692 167.45C34.1692 165.546 34.5892 164.006 36.2272 164.006C37.8652 164.006 38.2852 165.546 38.2852 167.45C38.2852 169.34 37.8652 170.88 36.2272 170.88C34.5892 170.88 34.1692 169.34 34.1692 167.45Z" fill="#787878"/>
<path d="M31.888 122.51C31.258 121.124 30.292 120.788 29.27 120.746C27.604 120.704 26.4 121.866 26.134 123.532C25.952 124.694 25.896 125.842 25.98 126.99C26.134 128.894 27.282 130.056 28.892 130.126C30.53 130.196 31.888 128.866 31.958 127.228C32 125.604 30.81 124.092 29.13 124.092C28.29 124.092 27.548 124.386 27.254 125.128C27.072 123.266 27.968 121.936 29.214 121.936C29.788 121.936 30.39 122.244 30.768 122.986L31.888 122.51ZM27.24 127.032C27.282 126.052 28.122 125.31 29.088 125.352C30.054 125.394 30.754 126.178 30.712 127.172C30.67 128.152 29.914 128.894 28.948 128.852C27.996 128.81 27.24 128.054 27.24 127.032ZM33.4033 125.45C33.4033 128.026 34.0893 130.126 36.7213 130.126C39.3533 130.126 40.0253 128.026 40.0253 125.45C40.0253 122.846 39.3533 120.746 36.7213 120.746C34.0893 120.746 33.4033 122.846 33.4033 125.45ZM34.6633 125.45C34.6633 123.546 35.0833 122.006 36.7213 122.006C38.3593 122.006 38.7793 123.546 38.7793 125.45C38.7793 127.34 38.3593 128.88 36.7213 128.88C35.0833 128.88 34.6633 127.34 34.6633 125.45Z" fill="#787878"/>
<path d="M25.498 81.084C25.498 81.742 25.764 82.302 26.17 82.694C25.33 83.212 24.784 84.122 24.784 85.144C24.784 86.81 26.142 88.126 27.934 88.126C29.712 88.126 31.084 86.81 31.084 85.144C31.084 84.122 30.566 83.24 29.684 82.694C30.118 82.302 30.398 81.742 30.398 81.084C30.398 79.796 29.334 78.746 27.934 78.746C26.534 78.746 25.498 79.796 25.498 81.084ZM26.044 85.144C26.044 84.206 26.814 83.422 27.836 83.38H27.934C28.998 83.38 29.824 84.192 29.824 85.144C29.824 86.11 28.998 86.88 27.934 86.88C26.87 86.88 26.044 86.11 26.044 85.144ZM26.744 81.084C26.744 80.482 27.262 80.006 27.934 80.006C28.62 80.006 29.138 80.482 29.138 81.084C29.138 81.686 28.648 82.162 27.976 82.204H27.864C27.206 82.162 26.744 81.686 26.744 81.084ZM32.4853 83.45C32.4853 86.026 33.1713 88.126 35.8033 88.126C38.4353 88.126 39.1073 86.026 39.1073 83.45C39.1073 80.846 38.4353 78.746 35.8033 78.746C33.1713 78.746 32.4853 80.846 32.4853 83.45ZM33.7453 83.45C33.7453 81.546 34.1653 80.006 35.8033 80.006C37.4413 80.006 37.8613 81.546 37.8613 83.45C37.8613 85.34 37.4413 86.88 35.8033 86.88C34.1653 86.88 33.7453 85.34 33.7453 83.45Z" fill="#787878"/>
<path d="M21.072 46H22.332V36.774L19.588 37.768V38.972L21.072 38.454V46ZM24.2998 41.45C24.2998 44.026 24.9858 46.126 27.6178 46.126C30.2498 46.126 30.9218 44.026 30.9218 41.45C30.9218 38.846 30.2498 36.746 27.6178 36.746C24.9858 36.746 24.2998 38.846 24.2998 41.45ZM25.5598 41.45C25.5598 39.546 25.9798 38.006 27.6178 38.006C29.2558 38.006 29.6758 39.546 29.6758 41.45C29.6758 43.34 29.2558 44.88 27.6178 44.88C25.9798 44.88 25.5598 43.34 25.5598 41.45ZM32.4763 41.45C32.4763 44.026 33.1623 46.126 35.7943 46.126C38.4263 46.126 39.0983 44.026 39.0983 41.45C39.0983 38.846 38.4263 36.746 35.7943 36.746C33.1623 36.746 32.4763 38.846 32.4763 41.45ZM33.7363 41.45C33.7363 39.546 34.1563 38.006 35.7943 38.006C37.4323 38.006 37.8523 39.546 37.8523 41.45C37.8523 43.34 37.4323 44.88 35.7943 44.88C34.1563 44.88 33.7363 43.34 33.7363 41.45Z" fill="#787878"/>
<line x1="54.25" y1="40" x2="54.25" y2="233" stroke="#E0E0E0" stroke-width="0.5"/>
<line x1="495" y1="233.25" x2="55" y2="233.25" stroke="#E0E0E0" stroke-width="0.5"/>
<path d="M68.6 259.36C68.936 259.43 69.384 259.514 69.65 259.514C71.82 259.514 72.618 258.072 72.618 256.378V246.354H71.316V256.378C71.316 257.386 70.868 258.24 69.65 258.24C69.538 258.24 68.936 258.198 68.726 258.128L68.6 259.36ZM79.7448 256H81.0048V249.462H79.7448V250.442C79.2968 249.7 78.3588 249.322 77.4488 249.322C75.6568 249.322 74.1308 250.638 74.1308 252.724C74.1308 254.796 75.6568 256.14 77.4488 256.14C78.3588 256.14 79.3108 255.72 79.7448 254.992V256ZM79.7308 252.71C79.7308 254.096 78.7228 254.894 77.5608 254.894C76.3848 254.894 75.4328 253.998 75.4328 252.71C75.4328 251.422 76.3848 250.568 77.5608 250.568C78.6248 250.568 79.7308 251.31 79.7308 252.71ZM84.111 252.472C84.111 251.086 85.035 250.568 85.959 250.568C86.855 250.568 87.401 251.198 87.401 252.304V256H88.675V252.22C88.675 250.372 87.793 249.322 86.155 249.322C85.441 249.322 84.489 249.658 84.111 250.442V249.462H82.837V256H84.111V252.472Z" fill="#787878"/>
<rect x="67" y="88" width="26" height="145" fill="#064AAC"/>
<path d="M106.316 246.354V256H107.618V251.87H111.048V250.652H107.618V247.572H111.944V246.354H106.316ZM113.454 252.22C113.608 251.114 114.448 250.47 115.526 250.47C116.59 250.47 117.36 251.114 117.514 252.22H113.454ZM118.774 252.71C118.774 250.638 117.388 249.322 115.526 249.322C113.664 249.322 112.18 250.638 112.18 252.71C112.18 254.782 113.664 256.14 115.526 256.14C116.8 256.14 117.976 255.566 118.536 254.404C118.186 254.25 117.78 254.138 117.444 253.984C117.066 254.642 116.352 254.992 115.568 254.992C114.448 254.992 113.608 254.32 113.454 253.214H118.76C118.774 253.06 118.774 252.864 118.774 252.71ZM121.367 254.992C121.801 255.72 122.739 256.14 123.649 256.14C125.441 256.14 126.967 254.796 126.967 252.724C126.967 250.638 125.469 249.322 123.663 249.322C122.711 249.322 121.801 249.7 121.367 250.442V245.906H120.093V256H121.367V254.992ZM121.381 252.71C121.381 251.31 122.487 250.568 123.551 250.568C124.727 250.568 125.665 251.422 125.665 252.71C125.665 253.998 124.727 254.894 123.551 254.894C122.389 254.894 121.381 254.096 121.381 252.71Z" fill="#787878"/>
<rect x="103" y="177" width="26" height="56" fill="#064AAC"/>
<path d="M145.538 253.438L142.136 246.354H140.946L139.77 256H141.058L141.94 248.748L144.978 254.936H146.126L149.136 248.748L150.018 256H151.306L150.13 246.354H148.94L145.538 253.438ZM157.932 256H159.192V249.462H157.932V250.442C157.484 249.7 156.546 249.322 155.636 249.322C153.844 249.322 152.318 250.638 152.318 252.724C152.318 254.796 153.844 256.14 155.636 256.14C156.546 256.14 157.498 255.72 157.932 254.992V256ZM157.918 252.71C157.918 254.096 156.91 254.894 155.748 254.894C154.572 254.894 153.62 253.998 153.62 252.71C153.62 251.422 154.572 250.568 155.748 250.568C156.812 250.568 157.918 251.31 157.918 252.71ZM162.299 253.62C162.299 251.884 162.831 250.54 164.091 250.54C164.357 250.54 164.707 250.596 165.057 250.764L165.253 249.574C165.071 249.448 164.581 249.322 164.119 249.322C163.265 249.322 162.635 249.77 162.299 250.932V249.462H161.025V256H162.299V253.62Z" fill="#787878"/>
<rect x="139" y="131" width="26" height="102" fill="#064AAC"/>
<path d="M180.926 252.374L182.522 248.09L184.118 252.374H180.926ZM184.566 253.55L185.504 256H186.876L183.222 246.354H181.822L178.154 256H179.54L180.478 253.55H184.566ZM189.061 249.462H187.787V259.178H189.061V255.02C189.509 255.762 190.419 256.14 191.343 256.14C193.135 256.14 194.619 254.824 194.619 252.752C194.619 250.68 193.135 249.322 191.343 249.322C190.419 249.322 189.509 249.742 189.061 250.484V249.462ZM189.075 252.766C189.075 251.38 190.069 250.568 191.217 250.568C192.393 250.568 193.331 251.464 193.331 252.766C193.331 254.068 192.393 254.894 191.217 254.894C190.167 254.894 189.075 254.166 189.075 252.766ZM197.293 253.62C197.293 251.884 197.825 250.54 199.085 250.54C199.351 250.54 199.701 250.596 200.051 250.764L200.247 249.574C200.065 249.448 199.575 249.322 199.113 249.322C198.259 249.322 197.629 249.77 197.293 250.932V249.462H196.019V256H197.293V253.62Z" fill="#787878"/>
<rect x="176" y="33" width="26" height="200" fill="#064AAC"/>
<path d="M218.538 253.438L215.136 246.354H213.946L212.77 256H214.058L214.94 248.748L217.978 254.936H219.126L222.136 248.748L223.018 256H224.306L223.13 246.354H221.94L218.538 253.438ZM230.932 256H232.192V249.462H230.932V250.442C230.484 249.7 229.546 249.322 228.636 249.322C226.844 249.322 225.318 250.638 225.318 252.724C225.318 254.796 226.844 256.14 228.636 256.14C229.546 256.14 230.498 255.72 230.932 254.992V256ZM230.918 252.71C230.918 254.096 229.91 254.894 228.748 254.894C227.572 254.894 226.62 253.998 226.62 252.71C226.62 251.422 227.572 250.568 228.748 250.568C229.812 250.568 230.918 251.31 230.918 252.71ZM235.789 259.178L239.849 249.462H238.491L236.531 254.194L234.571 249.462H233.213L235.831 255.804L234.459 259.178H235.789Z" fill="#787878"/>
<rect x="213" y="177" width="26" height="56" fill="#064AAC"/>
<path d="M253.6 259.36C253.936 259.43 254.384 259.514 254.65 259.514C256.82 259.514 257.618 258.072 257.618 256.378V246.354H256.316V256.378C256.316 257.386 255.868 258.24 254.65 258.24C254.538 258.24 253.936 258.198 253.726 258.128L253.6 259.36ZM264.168 252.99C264.168 254.39 263.244 254.894 262.32 254.894C261.424 254.894 260.892 254.264 260.892 253.158V249.462H259.618V253.242C259.604 255.09 260.5 256.14 262.138 256.14C262.852 256.14 263.762 255.804 264.168 255.02V256H265.442V249.462H264.168V252.99ZM268.537 252.472C268.537 251.086 269.461 250.568 270.385 250.568C271.281 250.568 271.827 251.198 271.827 252.304V256H273.101V252.22C273.101 250.372 272.219 249.322 270.581 249.322C269.867 249.322 268.915 249.658 268.537 250.442V249.462H267.263V256H268.537V252.472Z" fill="#787878"/>
<rect x="251" y="144" width="27" height="89" fill="#064AAC"/>
<path d="M290.6 259.36C290.936 259.43 291.384 259.514 291.65 259.514C293.82 259.514 294.618 258.072 294.618 256.378V246.354H293.316V256.378C293.316 257.386 292.868 258.24 291.65 258.24C291.538 258.24 290.936 258.198 290.726 258.128L290.6 259.36ZM301.168 252.99C301.168 254.39 300.244 254.894 299.32 254.894C298.424 254.894 297.892 254.264 297.892 253.158V249.462H296.618V253.242C296.604 255.09 297.5 256.14 299.138 256.14C299.852 256.14 300.762 255.804 301.168 255.02V256H302.442V249.462H301.168V252.99ZM304.263 245.906V256H305.537V245.906H304.263Z" fill="#787878"/>
<rect x="288" y="182" width="23" height="51" fill="#064AAC"/>
<path d="M324.926 252.374L326.522 248.09L328.118 252.374H324.926ZM328.566 253.55L329.504 256H330.876L327.222 246.354H325.822L322.154 256H323.54L324.478 253.55H328.566ZM336.171 252.99C336.171 254.39 335.247 254.894 334.323 254.894C333.427 254.894 332.895 254.264 332.895 253.158V249.462H331.621V253.242C331.607 255.09 332.503 256.14 334.141 256.14C334.855 256.14 335.765 255.804 336.171 255.02V256H337.445V249.462H336.171V252.99ZM340.247 256.938C340.079 257.008 339.337 257.414 339.183 257.498C339.813 258.66 340.919 259.262 342.137 259.262C344.307 259.262 345.707 258.086 345.707 255.006V249.462H344.447V250.484C343.999 249.742 343.061 249.322 342.151 249.322C340.359 249.322 338.833 250.68 338.833 252.752C338.833 254.824 340.359 256.14 342.151 256.14C343.075 256.14 344.041 255.72 344.447 254.936C344.447 254.992 344.461 255.034 344.461 255.09C344.461 257.26 343.551 258.058 342.137 258.058C341.409 258.058 340.639 257.666 340.247 256.938ZM344.433 252.738C344.433 254.138 343.327 254.894 342.263 254.894C341.087 254.894 340.135 254.082 340.135 252.738C340.135 251.464 341.087 250.568 342.263 250.568C343.425 250.568 344.433 251.338 344.433 252.738Z" fill="#787878"/>
<rect x="321" y="144" width="27" height="89" fill="#064AAC"/>
<path d="M359.728 253.214C359.728 254.726 361.142 256.14 363.102 256.14C365.006 256.14 366.14 255.02 366.322 253.62C366.532 252.066 365.552 251.058 363.746 250.596L362.486 250.288C361.268 249.994 361.114 249.364 361.114 248.944C361.114 248.062 361.968 247.488 362.92 247.488C363.984 247.488 364.74 248.104 364.74 249.07H366.042C366.042 247.334 364.684 246.242 362.934 246.242C361.296 246.242 359.812 247.334 359.812 248.958C359.812 249.798 360.106 250.96 362.164 251.478L363.41 251.786C364.278 251.982 365.118 252.472 365.048 253.508C364.936 254.236 364.334 254.922 363.102 254.922C361.884 254.922 361.03 254.054 361.03 253.214H359.728ZM368.629 252.22C368.783 251.114 369.623 250.47 370.701 250.47C371.765 250.47 372.535 251.114 372.689 252.22H368.629ZM373.949 252.71C373.949 250.638 372.563 249.322 370.701 249.322C368.839 249.322 367.355 250.638 367.355 252.71C367.355 254.782 368.839 256.14 370.701 256.14C371.975 256.14 373.151 255.566 373.711 254.404C373.361 254.25 372.955 254.138 372.619 253.984C372.241 254.642 371.527 254.992 370.743 254.992C369.623 254.992 368.783 254.32 368.629 253.214H373.935C373.949 253.06 373.949 252.864 373.949 252.71ZM376.543 249.462H375.269V259.178H376.543V255.02C376.991 255.762 377.901 256.14 378.825 256.14C380.617 256.14 382.101 254.824 382.101 252.752C382.101 250.68 380.617 249.322 378.825 249.322C377.901 249.322 376.991 249.742 376.543 250.484V249.462ZM376.557 252.766C376.557 251.38 377.551 250.568 378.699 250.568C379.875 250.568 380.813 251.464 380.813 252.766C380.813 254.068 379.875 254.894 378.699 254.894C377.649 254.894 376.557 254.166 376.557 252.766Z" fill="#787878"/>
<rect x="358" y="131" width="26" height="102" fill="#064AAC"/>
<path d="M396.686 251.198C396.686 253.942 398.814 256.14 401.558 256.14C404.316 256.14 406.458 253.942 406.458 251.198C406.458 248.468 404.316 246.242 401.558 246.242C398.814 246.242 396.686 248.468 396.686 251.198ZM397.988 251.198C397.988 249.14 399.542 247.502 401.558 247.502C403.588 247.502 405.142 249.14 405.142 251.198C405.142 253.256 403.588 254.88 401.558 254.88C399.542 254.88 397.988 253.256 397.988 251.198ZM407.473 252.71C407.473 254.782 409.069 256.14 410.931 256.14C411.939 256.14 412.849 255.748 413.465 255.076L412.485 254.264C412.093 254.67 411.533 254.908 410.931 254.908C409.755 254.908 408.733 254.012 408.733 252.71C408.733 251.394 409.755 250.568 410.931 250.568C411.533 250.568 412.093 250.792 412.485 251.184L413.451 250.372C412.835 249.7 411.939 249.322 410.931 249.322C409.069 249.322 407.473 250.638 407.473 252.71ZM416.535 249.462V246.998H415.261V249.462H414.085V250.54H415.261V256H416.535V250.54H417.921V249.462H416.535Z" fill="#787878"/>
<rect x="394" y="83" width="26" height="150" fill="#064AAC"/>
<path d="M438.26 255V245.354H436.958V252.564L432.604 245.354H431.316V255H432.618V247.734L437.014 255H438.26ZM443.18 255.14C445.042 255.14 446.61 253.782 446.61 251.71C446.61 249.638 445.042 248.322 443.18 248.322C441.318 248.322 439.764 249.638 439.764 251.71C439.764 253.782 441.318 255.14 443.18 255.14ZM443.18 253.908C441.99 253.908 441.024 253.054 441.024 251.71C441.024 250.394 441.99 249.568 443.18 249.568C444.342 249.568 445.336 250.394 445.336 251.71C445.336 253.054 444.342 253.908 443.18 253.908ZM447.179 248.462L449.895 255H451.127H451.113L453.843 248.462H452.485L450.511 253.376L448.523 248.462H447.179Z" fill="#787878"/>
<rect x="430" y="33" width="26" height="200" fill="#064AAC"/>
<path d="M471.054 254C473.798 254 475.394 251.942 475.394 249.198C475.394 246.454 473.798 244.354 471.054 244.354H467.316V254H471.054ZM468.618 252.782V245.572H471.054C473.056 245.572 474.092 247.168 474.092 249.198C474.092 251.228 473.056 252.782 471.054 252.782H468.618ZM477.735 250.22C477.889 249.114 478.729 248.47 479.807 248.47C480.871 248.47 481.641 249.114 481.795 250.22H477.735ZM483.055 250.71C483.055 248.638 481.669 247.322 479.807 247.322C477.945 247.322 476.461 248.638 476.461 250.71C476.461 252.782 477.945 254.14 479.807 254.14C481.081 254.14 482.257 253.566 482.817 252.404C482.467 252.25 482.061 252.138 481.725 251.984C481.347 252.642 480.633 252.992 479.849 252.992C478.729 252.992 477.889 252.32 477.735 251.214H483.041C483.055 251.06 483.055 250.864 483.055 250.71ZM483.94 250.71C483.94 252.782 485.536 254.14 487.398 254.14C488.406 254.14 489.316 253.748 489.932 253.076L488.952 252.264C488.56 252.67 488 252.908 487.398 252.908C486.222 252.908 485.2 252.012 485.2 250.71C485.2 249.394 486.222 248.568 487.398 248.568C488 248.568 488.56 248.792 488.952 249.184L489.918 248.372C489.302 247.7 488.406 247.322 487.398 247.322C485.536 247.322 483.94 248.638 483.94 250.71Z" fill="#787878"/>
<rect x="466" y="201" width="26" height="32" fill="#064AAC"/>
</svg>
